<svg width="20" height="20" viewBox="0 0 20 20" fill="none" xmlns="http://www.w3.org/2000/svg">
    <path fill-rule="evenodd" clip-rule="evenodd" d="M16.6667 9.58332C16.6667 5.05814 11.7218 1.92486 7.62572 3.99382L7.62257 3.99542L7.62256 3.99541C4.60717 5.50245 3.29705 9.34493 4.82718 12.3743C4.92735 12.5726 4.94418 12.8027 4.87392 13.0135L3.81763 16.1824L6.98649 15.1261C7.19728 15.0558 7.4274 15.0727 7.62572 15.1728C11.6729 17.2171 16.6783 14.0341 16.6667 9.58549L16.6667 9.58332ZM18.3333 9.58239C18.3327 3.84481 12.1052 -0.134574 6.87588 2.50536C3.15359 4.36678 1.48006 8.99635 3.18667 12.8048L1.70944 17.2365C1.60963 17.5359 1.68756 17.8661 1.91076 18.0892C2.13395 18.3124 2.46409 18.3904 2.76354 18.2906L7.19498 16.8134C12.3094 19.1102 18.3469 15.133 18.3333 9.58239Z" fill="#BDBDBD"/>
    </svg>
    