<svg width="20" height="20" viewBox="0 0 20 20" fill="none" xmlns="http://www.w3.org/2000/svg">
    <path fill-rule="evenodd" clip-rule="evenodd" d="M9.48839 1.00885C9.78931 0.7748 10.2107 0.7748 10.5116 1.00885L18.0116 6.84219C18.2146 7.00007 18.3333 7.24282 18.3333 7.49998V16.6666C18.3333 17.3297 18.0699 17.9656 17.6011 18.4344C17.1323 18.9033 16.4964 19.1666 15.8333 19.1666H4.16667C3.50363 19.1666 2.86775 18.9033 2.3989 18.4344C1.93006 17.9656 1.66667 17.3297 1.66667 16.6666V7.49998C1.66667 7.24282 1.7854 7.00007 1.98839 6.84219L9.48839 1.00885ZM3.33334 7.90755V16.6666C3.33334 16.8877 3.42114 17.0996 3.57742 17.2559C3.7337 17.4122 3.94566 17.5 4.16667 17.5H15.8333C16.0544 17.5 16.2663 17.4122 16.4226 17.2559C16.5789 17.0996 16.6667 16.8877 16.6667 16.6666V7.90755L10 2.72236L3.33334 7.90755Z" fill="#B3B3B3"/>
    <path fill-rule="evenodd" clip-rule="evenodd" d="M6.66667 9.99998C6.66667 9.53974 7.03977 9.16665 7.50001 9.16665H12.5C12.9602 9.16665 13.3333 9.53974 13.3333 9.99998V18.3333C13.3333 18.7935 12.9602 19.1666 12.5 19.1666C12.0398 19.1666 11.6667 18.7935 11.6667 18.3333V10.8333H8.33334V18.3333C8.33334 18.7935 7.96024 19.1666 7.50001 19.1666C7.03977 19.1666 6.66667 18.7935 6.66667 18.3333V9.99998Z" fill="#B3B3B3"/>
    </svg>
    