<svg width="16" height="16" viewBox="0 0 16 16" fill="none" xmlns="http://www.w3.org/2000/svg">
    <path fill-rule="evenodd" clip-rule="evenodd" d="M8 1.33334C5.3926 1.33334 2.66667 3.30435 2.66667 6.55073C2.66667 9.62319 7.40741 14.3188 7.58519 14.4928C7.70371 14.6087 7.82223 14.6667 8 14.6667C8.17778 14.6667 8.2963 14.6087 8.41482 14.4928C8.5926 14.3188 13.3333 9.62319 13.3333 6.55073C13.3333 3.30435 10.6074 1.33334 8 1.33334ZM8 8.44444C6.99259 8.44444 6.22222 7.67407 6.22222 6.66667C6.22222 5.65926 6.99259 4.88889 8 4.88889C9.00741 4.88889 9.77778 5.65926 9.77778 6.66667C9.77778 7.67407 9.00741 8.44444 8 8.44444Z" fill="#57419D"/>
    </svg>
    