<svg width="18" height="19" viewBox="0 0 18 19" fill="none" xmlns="http://www.w3.org/2000/svg">
    <path fill-rule="evenodd" clip-rule="evenodd" d="M9.16667 1.66667C7.84058 1.66667 6.56881 2.19345 5.63113 3.13113C4.69345 4.06881 4.16667 5.34058 4.16667 6.66667V10.8333C4.16667 11.4235 4.01015 11.9976 3.72009 12.5H14.6132C14.3232 11.9976 14.1667 11.4235 14.1667 10.8333V6.66667C14.1667 5.34058 13.6399 4.06881 12.7022 3.13113C11.7645 2.19345 10.4927 1.66667 9.16667 1.66667ZM17.5 12.5C17.058 12.5 16.634 12.3244 16.3215 12.0118C16.0089 11.6993 15.8333 11.2754 15.8333 10.8333V6.66667C15.8333 4.89856 15.131 3.20286 13.8807 1.95262C12.6305 0.702379 10.9348 0 9.16667 0C7.39856 0 5.70286 0.702379 4.45262 1.95262C3.20238 3.20286 2.5 4.89856 2.5 6.66667V10.8333C2.5 11.2754 2.32441 11.6993 2.01184 12.0118C1.69928 12.3244 1.27536 12.5 0.833333 12.5C0.373096 12.5 0 12.8731 0 13.3333C0 13.7936 0.373096 14.1667 0.833333 14.1667H17.5V12.5ZM7.30686 15.9458C7.70496 15.7149 8.2149 15.8504 8.44583 16.2485C8.51909 16.3748 8.62423 16.4796 8.75074 16.5525C8.87725 16.6254 9.02067 16.6637 9.16667 16.6637C9.31266 16.6637 9.45609 16.6254 9.58259 16.5525C9.7091 16.4796 9.81424 16.3748 9.8875 16.2485C10.1184 15.8504 10.6284 15.7149 11.0265 15.9458C11.4246 16.1768 11.5601 16.6867 11.3292 17.0848C11.1094 17.4637 10.794 17.7781 10.4144 17.9967C10.0349 18.2153 9.60464 18.3304 9.16667 18.3304C8.72869 18.3304 8.2984 18.2153 7.91888 17.9967C7.53936 17.7781 7.22393 17.4637 7.00417 17.0848C6.77323 16.6867 6.90875 16.1768 7.30686 15.9458Z" fill="#5533EA"/>
    </svg>
    